<svg width="16" height="17" viewBox="0 0 16 17" fill="none" xmlns="http://www.w3.org/2000/svg">
<path id="Vector" d="M1.54446 10.8112V1.54446H0V0H2.31669C2.74318 0 3.08892 0.345743 3.08892 0.77223V10.039H12.6942L14.2387 3.86115H4.63338V2.31669H15.2278C15.6543 2.31669 16 2.66243 16 3.08892C16 3.15206 15.9923 3.21496 15.9769 3.27622L14.0463 10.9985C13.9605 11.3423 13.6516 11.5834 13.2972 11.5834H2.31669C1.8902 11.5834 1.54446 11.2377 1.54446 10.8112ZM3.08892 16.2168C2.23594 16.2168 1.54446 15.5254 1.54446 14.6724C1.54446 13.8194 2.23594 13.1279 3.08892 13.1279C3.9419 13.1279 4.63338 13.8194 4.63338 14.6724C4.63338 15.5254 3.9419 16.2168 3.08892 16.2168ZM12.3557 16.2168C11.5027 16.2168 10.8112 15.5254 10.8112 14.6724C10.8112 13.8194 11.5027 13.1279 12.3557 13.1279C13.2087 13.1279 13.9002 13.8194 13.9002 14.6724C13.9002 15.5254 13.2087 16.2168 12.3557 16.2168Z" fill="black"/>
</svg>
