<svg width="48" height="48" viewBox="0 0 48 48" fill="none" xmlns="http://www.w3.org/2000/svg">
<g id="customer-service 1" clip-path="url(#clip0_65_82)">
<g id="Layer 2">
<g id="Layer 1">
<path id="Vector" d="M26.9062 0C27.0963 0.23625 27.335 0.44875 27.4675 0.715C27.8625 1.50875 28.2025 2.33 28.5925 3.12375C28.6438 3.20848 28.712 3.28172 28.7929 3.33893C28.8737 3.39613 28.9655 3.43607 29.0625 3.45625C30.0037 3.59375 30.9562 3.66125 31.8937 3.82125C32.183 3.8904 32.4337 4.06983 32.5925 4.32125C32.7687 4.625 32.6 4.94625 32.33 5.1875C31.6338 5.8125 30.955 6.45625 30.2537 7.08C30.1609 7.14598 30.0914 7.23982 30.0554 7.34793C30.0195 7.45603 30.0189 7.57278 30.0537 7.68125C30.2612 8.575 30.42 9.48 30.61 10.3787C30.6863 10.7425 30.6663 11.07 30.3438 11.3025C30.0212 11.535 29.7025 11.455 29.38 11.2712C28.5687 10.8062 27.755 10.3412 26.9287 9.905C26.8447 9.86791 26.7538 9.84875 26.6619 9.84875C26.57 9.84875 26.4791 9.86791 26.395 9.905C25.5688 10.3425 24.7563 10.8075 23.9438 11.2725C23.6225 11.4563 23.3013 11.5312 22.9813 11.2987C22.6613 11.0662 22.6425 10.735 22.7188 10.3737C22.9088 9.475 23.0663 8.56875 23.2763 7.675C23.3413 7.3975 23.2625 7.2475 23.0725 7.07625C22.3975 6.47375 21.74 5.85125 21.065 5.24875C20.7738 4.98875 20.5913 4.7025 20.7188 4.30625C20.8463 3.91 21.165 3.8225 21.5263 3.78125C22.4413 3.68 23.3575 3.58625 24.2675 3.4525C24.3664 3.43473 24.4604 3.39639 24.5435 3.33998C24.6266 3.28356 24.697 3.21032 24.75 3.125C25.1462 2.33125 25.485 1.50875 25.8813 0.715C26.0138 0.45 26.2563 0.23875 26.4438 0.0025L26.9062 0ZM24.5 9.25C25.0925 8.91625 25.6 8.65 26.085 8.34875C26.4912 8.09875 26.8587 8.09875 27.2638 8.34875C27.745 8.645 28.25 8.90375 28.8337 9.22375C28.7288 8.6725 28.69 8.22375 28.55 7.79625C28.3062 7.07 28.4938 6.54625 29.1063 6.095C29.4688 5.83 29.7775 5.49 30.1887 5.11125C29.4662 5.0225 28.8825 4.935 28.2962 4.885C28.1088 4.87863 27.9278 4.81544 27.7771 4.70382C27.6264 4.59221 27.5132 4.43742 27.4525 4.26C27.2162 3.70875 26.9525 3.17 26.6675 2.55875C26.38 3.18375 26.12 3.7275 25.8762 4.2825C25.8157 4.45166 25.7063 4.59901 25.5619 4.70585C25.4174 4.81268 25.2445 4.87417 25.065 4.8825C24.465 4.93625 23.8688 5.025 23.16 5.1125C23.6775 5.59 24.1125 6.00375 24.56 6.40375C24.7026 6.51469 24.8088 6.66572 24.8649 6.83745C24.921 7.00918 24.9245 7.19376 24.875 7.3675C24.7337 7.9525 24.6363 8.5475 24.5 9.25Z" fill="white"/>
<path id="Vector_2" d="M16.75 28.9552C18.1006 28.2651 19.3019 27.3153 20.285 26.1602C21.9475 24.2002 22.87 21.894 23.2225 19.389C23.4625 17.6827 23.5125 15.9452 23.5762 14.2202C23.625 12.9077 24.2312 12.3015 25.545 12.4377C25.9487 12.4765 26.3489 12.545 26.7425 12.6427C28.9437 13.209 30.1462 14.6952 30.2662 16.9652C30.415 19.7565 30.4512 22.544 30.0162 25.3165C30.017 25.3756 30.0249 25.4343 30.04 25.4915C31.085 25.4365 32.125 25.3665 33.165 25.3277C34.945 25.264 36.725 25.1577 38.5037 25.184C40.1088 25.2141 41.6636 25.749 42.9475 26.7127C44.19 27.6227 44.5925 28.9427 44.0787 30.4027C43.8687 30.9977 43.53 31.5502 43.2187 32.1052C43.1075 32.3052 43.0787 32.4302 43.21 32.6402C44.295 34.3802 43.96 36.369 42.35 37.649C42.135 37.8215 42.15 37.9627 42.1737 38.1977C42.2425 38.9052 42.3412 39.624 42.2825 40.3227C42.195 41.3802 41.6087 42.184 40.685 42.714C40.435 42.854 40.3412 42.9777 40.37 43.2865C40.4382 44.1715 40.2355 45.0563 39.789 45.8234C39.3425 46.5905 38.6732 47.2037 37.87 47.5815C37.6572 47.675 37.4274 47.7239 37.195 47.7252C31.5558 47.7894 25.9167 47.8461 20.2775 47.8952C19.9985 47.8928 19.7217 47.846 19.4575 47.7565C18.5562 47.4627 17.6625 47.144 16.7637 46.8327C16.5425 47.674 16.4062 47.7765 15.5512 47.7765H4.8225C3.91625 47.7765 3.70875 47.5752 3.70875 46.684C3.70875 40.8365 3.70875 34.989 3.70875 29.1415C3.70875 28.2352 3.90125 28.0427 4.805 28.0427H15.68C16.4137 28.0477 16.5837 28.1877 16.75 28.9552ZM25.1 13.854C25.1 14.134 25.1 14.3177 25.1 14.5002C25.1162 17.4815 24.83 20.419 23.7125 23.2152C22.3987 26.5015 20.2412 29.0202 16.95 30.4877C16.8805 30.5343 16.8225 30.5961 16.7805 30.6684C16.7385 30.7408 16.7135 30.8218 16.7075 30.9052C16.695 35.5677 16.7 40.229 16.69 44.8915C16.69 45.169 16.8025 45.2665 17.0375 45.3477C17.8225 45.6065 18.5937 45.9102 19.3862 46.139C19.8875 46.2938 20.408 46.3779 20.9325 46.389C26.15 46.3552 31.3675 46.2802 36.585 46.2552C37.3275 46.2552 37.835 45.954 38.255 45.4152C38.5367 45.0688 38.7328 44.661 38.8275 44.2247C38.9222 43.7884 38.9127 43.336 38.8 42.904C38.615 42.109 38.7062 41.939 39.4787 41.6402C40.4325 41.2652 40.8925 40.6577 40.8537 39.6402C40.8085 39.0517 40.7063 38.469 40.5487 37.9002C40.3875 37.2365 40.465 37.004 41.0675 36.6915C42.475 35.9602 42.7687 34.2602 41.6862 33.1127C41.2075 32.6052 41.2287 32.354 41.6162 31.764C42.0286 31.1632 42.3835 30.525 42.6762 29.8577C42.9787 29.1215 42.755 28.439 42.1087 27.9465C41.1265 27.1822 39.9309 26.7423 38.6875 26.6877C36.9125 26.6252 35.1287 26.7415 33.35 26.8127C31.9612 26.8677 30.575 26.9777 29.1862 27.0415C28.5525 27.0715 28.2425 26.6765 28.3575 26.0515C28.4062 25.7915 28.4637 25.5327 28.5062 25.2715C28.9712 22.469 28.9362 19.6465 28.7562 16.8302C28.6637 15.4002 27.9312 14.5315 26.5575 14.1377C26.1037 14.0127 25.6362 13.9577 25.1 13.854ZM15.1675 46.2502V29.5852H5.23375V46.2502H15.1675Z" fill="white"/>
<path id="Vector_3" d="M32.81 13.9348C33 12.9998 33.1788 11.9998 33.4038 11.0173C33.4374 10.9088 33.4359 10.7924 33.3993 10.6848C33.3627 10.5772 33.2929 10.484 33.2 10.4186C32.5138 9.80482 31.845 9.16857 31.16 8.55607C30.8788 8.30607 30.7275 8.02107 30.8475 7.64732C30.9675 7.27357 31.2913 7.15732 31.6525 7.11857C32.5525 7.02232 33.4513 6.90982 34.3525 6.82607C34.4749 6.82495 34.5939 6.78536 34.6926 6.71291C34.7913 6.64045 34.8648 6.53879 34.9025 6.42232C35.2613 5.59357 35.6525 4.77857 36.0275 3.95607C36.1763 3.62607 36.3663 3.35982 36.7775 3.34982C37.2088 3.34107 37.4113 3.61232 37.5687 3.96107C37.9437 4.79857 38.3188 5.63857 38.7263 6.46107C38.7772 6.54786 38.8456 6.62313 38.9271 6.68209C39.0087 6.74105 39.1016 6.78241 39.2 6.80357C40.095 6.92857 40.9963 7.02106 41.8975 7.11481C42.2725 7.15356 42.6163 7.24857 42.745 7.65357C42.8738 8.05857 42.6813 8.33607 42.3913 8.59482C41.7175 9.19732 41.0613 9.82232 40.385 10.4236C40.2925 10.4904 40.2237 10.5849 40.1886 10.6935C40.1536 10.8021 40.154 10.919 40.19 11.0273C40.395 11.9223 40.5525 12.8286 40.745 13.7261C40.8238 14.0923 40.7925 14.4161 40.4738 14.6473C40.155 14.8786 39.835 14.7948 39.5125 14.6098C38.715 14.1498 37.9038 13.7161 37.1113 13.2486C37.0182 13.1832 36.907 13.1487 36.7934 13.1498C36.6797 13.1509 36.5692 13.1877 36.4775 13.2548C35.6558 13.7348 34.8271 14.2019 33.9913 14.6561C33.3875 14.9798 32.7925 14.6348 32.81 13.9348ZM33.2725 8.44982C33.7875 8.92482 34.215 9.32482 34.6563 9.72232C34.9638 9.99482 35.09 10.2986 34.99 10.7223C34.8513 11.3073 34.755 11.9036 34.6238 12.5798C35.2175 12.2498 35.74 11.9773 36.2425 11.6736C36.4042 11.5637 36.5951 11.5049 36.7906 11.5049C36.9861 11.5049 37.1771 11.5637 37.3388 11.6736C37.8388 11.9748 38.3638 12.2511 38.9638 12.5836C38.8388 11.9236 38.7513 11.3423 38.6063 10.7773C38.49 10.3211 38.625 9.99857 38.9638 9.70357C39.4038 9.32106 39.8238 8.91482 40.3113 8.46357C39.6613 8.38482 39.1088 8.28732 38.5538 8.25857C38.0325 8.23107 37.725 7.99107 37.5325 7.52232C37.3188 6.99982 37.065 6.49232 36.7963 5.90732C36.5063 6.53232 36.2463 7.08357 36.0038 7.63732C35.9368 7.81265 35.8194 7.9642 35.6663 8.07278C35.5132 8.18136 35.3314 8.2421 35.1438 8.24732C34.5513 8.28857 33.9663 8.37482 33.2725 8.44982Z" fill="white"/>
<path id="Vector_4" d="M12.565 13.9387C12.7575 12.9787 12.97 11.9887 13.1425 10.9925C13.1521 10.8944 13.1412 10.7954 13.1105 10.7018C13.0797 10.6081 13.0297 10.522 12.9637 10.4487C12.2925 9.79623 11.5987 9.16623 10.9012 8.54123C10.6162 8.29123 10.4837 7.99373 10.61 7.62748C10.7362 7.26123 11.0375 7.15998 11.3837 7.12748C12.2837 7.02873 13.1825 6.91498 14.0837 6.83498C14.2139 6.83393 14.3404 6.79229 14.4457 6.71588C14.551 6.63947 14.6299 6.53209 14.6712 6.40873C15.0275 5.57998 15.4212 4.76498 15.79 3.94123C15.9412 3.60623 16.1437 3.35498 16.55 3.35498C16.9562 3.35498 17.1587 3.60498 17.31 3.94373C17.685 4.78123 18.06 5.62248 18.4687 6.44373C18.5223 6.53594 18.5944 6.61608 18.6805 6.67911C18.7665 6.74213 18.8647 6.78669 18.9687 6.80998C19.8787 6.94248 20.7962 7.02748 21.7125 7.12748C22.0575 7.16498 22.3612 7.27748 22.4837 7.63498C22.6062 7.99248 22.4725 8.29748 22.1912 8.55123C21.4962 9.17623 20.8 9.80123 20.1287 10.4562C20.0643 10.5302 20.0157 10.6167 19.986 10.7102C19.9564 10.8037 19.9462 10.9024 19.9562 11C20.1112 11.905 20.3 12.805 20.49 13.7037C20.5662 14.0637 20.56 14.3937 20.24 14.6362C19.9037 14.8925 19.5737 14.7962 19.24 14.6025C18.4425 14.1437 17.6325 13.7075 16.8387 13.2412C16.7524 13.1787 16.6485 13.145 16.5419 13.145C16.4353 13.145 16.3314 13.1787 16.245 13.2412C15.4112 13.7287 14.57 14.2075 13.7187 14.665C13.125 14.985 12.5325 14.6137 12.565 13.9387ZM18.7162 12.575C18.5912 11.9162 18.5 11.3375 18.3587 10.7712C18.2462 10.32 18.37 9.99248 18.7125 9.69623C19.1537 9.32123 19.5725 8.90748 20.0637 8.45373C19.4137 8.37498 18.8625 8.27873 18.3137 8.24873C17.7937 8.22123 17.4837 7.98623 17.2912 7.51373C17.0762 6.98873 16.8212 6.47998 16.5537 5.89873C16.2712 6.50873 16.01 7.03748 15.7812 7.58123C15.7141 7.77281 15.5895 7.939 15.4244 8.05712C15.2593 8.17524 15.0617 8.23953 14.8587 8.24123C14.28 8.28623 13.7037 8.37498 13.04 8.45498C13.5575 8.93248 13.9987 9.34623 14.4475 9.75123C14.5876 9.8628 14.6912 10.0136 14.7451 10.1844C14.799 10.3552 14.8007 10.5382 14.75 10.71C14.61 11.2962 14.5137 11.8937 14.3812 12.5762C14.9737 12.2462 15.4937 11.9725 15.995 11.67C16.1558 11.5588 16.3463 11.4985 16.5418 11.4969C16.7373 11.4954 16.9287 11.5526 17.0912 11.6612C17.5962 11.9612 18.1162 12.2387 18.7162 12.575Z" fill="white"/>
<path id="Vector_5" d="M7.955 30.0265C8.31667 30.0302 8.66915 30.1408 8.96805 30.3445C9.26696 30.5481 9.49891 30.8357 9.6347 31.1709C9.77049 31.5061 9.80404 31.874 9.73113 32.2283C9.65822 32.5826 9.4821 32.9073 9.22497 33.1617C8.96783 33.416 8.64118 33.5886 8.28615 33.6577C7.93112 33.7267 7.56359 33.6892 7.22986 33.5498C6.89613 33.4103 6.61111 33.1753 6.41072 32.8742C6.21033 32.5731 6.10352 32.2194 6.10375 31.8577C6.10357 31.6155 6.15148 31.3757 6.2447 31.1521C6.33791 30.9285 6.47459 30.7257 6.64679 30.5554C6.819 30.385 7.02331 30.2505 7.24787 30.1598C7.47244 30.069 7.7128 30.0237 7.955 30.0265ZM8.43125 31.8402C8.2025 31.6927 8.065 31.534 7.9525 31.5502C7.84 31.5665 7.7225 31.744 7.60875 31.8502C7.73375 31.964 7.84 32.1402 7.98375 32.1702C8.075 32.1902 8.21375 32.0065 8.43125 31.8402Z" fill="white"/>
<path id="Vector_6" d="M8.43125 31.8401C8.21375 32.0064 8.075 32.1901 7.97875 32.1701C7.84 32.1401 7.72875 31.9639 7.60375 31.8501C7.7175 31.7439 7.82125 31.5676 7.9475 31.5501C8.07375 31.5326 8.2025 31.6926 8.43125 31.8401Z" fill="white"/>
</g>
</g>
</g>
<defs>
<clipPath id="clip0_65_82">
<rect width="48" height="48" fill="white"/>
</clipPath>
</defs>
</svg>
