<svg width="54" height="54" viewBox="0 0 54 54" fill="none" xmlns="http://www.w3.org/2000/svg">
<g id="delivery-car 1" clip-path="url(#clip0_64_32)">
<g id="Layer 2">
<g id="Layer 1">
<path id="Vector" d="M37.0898 37.381H26.8945C26.6133 39.1472 25.7934 40.5872 24.3098 41.6124C23.2486 42.3522 21.9725 42.7201 20.6803 42.6586C17.7637 42.5546 15.7964 40.7728 14.8809 37.3655H11.378C11.0615 37.3655 10.7437 37.3725 10.4287 37.3655C9.81561 37.3486 9.40499 36.9746 9.41764 36.4556C9.4303 35.9367 9.82405 35.5894 10.4133 35.5852C11.7309 35.5739 13.05 35.5852 14.369 35.5852H14.9315C16.2956 32.116 18.315 30.5227 21.1036 30.6633C23.6714 30.7955 26.1183 32.4296 26.8397 35.5585C26.9719 35.5669 27.1097 35.5824 27.2489 35.5824C30.3961 35.5824 33.5419 35.5824 36.689 35.5908C37.042 35.5908 37.1925 35.5163 37.2937 35.1422C37.6307 33.8572 38.3843 32.7203 39.4365 31.9094C40.4887 31.0984 41.7801 30.6593 43.1085 30.6608C44.437 30.6622 45.7274 31.1041 46.7778 31.9174C47.8283 32.7306 48.5794 33.8692 48.9136 35.1549C49.005 35.4966 49.1301 35.6035 49.4761 35.5908C50.1792 35.5669 50.8753 35.5838 51.5489 35.5838C51.5925 35.5092 51.6234 35.4797 51.6234 35.4516C51.6234 33.1538 51.6431 30.856 51.6234 28.561C51.615 27.6596 51.1748 26.9508 50.4394 26.4375C49.7039 25.9242 48.9684 25.4166 48.2104 24.9413C47.9846 24.8153 47.7292 24.7522 47.4708 24.7585C43.0364 24.7435 38.6034 24.7406 34.1719 24.75C33.1425 24.75 32.9062 24.5096 32.9062 23.4844C32.9062 20.2031 32.9062 16.9219 32.9062 13.6406V12.9867H14.1595C13.9315 12.9965 13.7031 12.9843 13.4775 12.9502C13.2796 12.9123 13.1011 12.8066 12.9728 12.6513C12.8444 12.496 12.7742 12.3009 12.7742 12.0994C12.7742 11.8979 12.8444 11.7028 12.9728 11.5475C13.1011 11.3922 13.2796 11.2865 13.4775 11.2486C13.7037 11.216 13.9325 11.2037 14.1609 11.2121C18.9787 11.2121 23.7961 11.2121 28.613 11.2121C31.6884 11.2121 34.7653 11.2121 37.8408 11.1671C40.0387 11.1319 41.6672 11.9911 42.8442 13.8685C44.7426 16.8975 46.7184 19.8802 48.6717 22.8685C48.8377 23.1132 49.0463 23.3261 49.2876 23.4971C49.9908 23.9991 50.7094 24.4646 51.4139 24.9596C52.7259 25.8821 53.408 27.1463 53.4122 28.7564C53.4178 31.2652 53.4178 33.7739 53.4122 36.2827C53.4122 37.0547 53.0958 37.3599 52.3181 37.3641C51.248 37.3641 50.1778 37.3641 49.1189 37.3641C48.2203 40.8291 46.0659 42.691 43.0228 42.6628C40.0415 42.6361 37.8731 40.7138 37.0898 37.381ZM46.4681 22.9402C46.4583 22.8713 46.4681 22.8333 46.447 22.8094C44.5992 19.9561 42.7781 17.0846 40.8726 14.2706C40.538 13.7771 39.8981 13.3777 39.3173 13.1906C38.6733 12.9825 37.9336 13.05 37.2361 13.0289C36.3923 13.0078 35.5626 13.0289 34.7161 13.0289V22.9444L46.4681 22.9402ZM25.1212 36.7214C25.079 34.2746 23.2312 32.4183 20.8575 32.438C19.7474 32.4647 18.6923 32.9267 17.9196 33.7241C17.1469 34.5216 16.7185 35.5908 16.7268 36.7012C16.7351 37.8116 17.1794 38.8743 17.9639 39.6601C18.7485 40.446 19.8104 40.892 20.9208 40.9022C23.2495 40.8783 25.1606 38.9785 25.1212 36.7172V36.7214ZM38.9025 36.5513C38.7422 38.7914 40.5436 40.7419 42.9131 40.8966C45.1701 41.0372 47.1684 39.2513 47.3358 36.9296C47.5017 34.6331 45.6905 32.611 43.3167 32.4464C40.9865 32.2819 39.0755 34.058 38.8983 36.5471L38.9025 36.5513Z" fill="white"/>
<path id="Vector_2" d="M7.11843 25.9085C5.36062 25.9085 3.60281 25.9085 1.8464 25.9085C1.15593 25.9085 0.75937 25.5907 0.746714 25.0493C0.734058 24.5079 1.14468 24.1409 1.80703 24.1395C5.37421 24.1338 8.9414 24.1338 12.5086 24.1395C13.327 24.1395 13.7967 24.7526 13.493 25.391C13.3059 25.7918 12.967 25.9142 12.5437 25.9128C10.7381 25.9043 8.92828 25.9085 7.11843 25.9085Z" fill="white"/>
<path id="Vector_3" d="M12.2344 19.4708C10.7606 19.4708 9.28124 19.4708 7.81171 19.4708C7.09733 19.4708 6.68671 19.1375 6.68671 18.5806C6.68671 18.0238 7.10858 17.6919 7.81874 17.6919C10.7672 17.6919 13.7161 17.6919 16.6655 17.6919C17.3151 17.6919 17.678 17.9563 17.7469 18.4555C17.827 19.0419 17.4319 19.4638 16.7625 19.468C15.2592 19.4764 13.7503 19.4708 12.2344 19.4708Z" fill="white"/>
<path id="Vector_4" d="M8.31234 31.3017C7.24359 31.3017 6.17344 31.3186 5.10328 31.3017C4.37625 31.2876 3.92062 30.69 4.23281 30.119C4.37344 29.8617 4.75031 29.5804 5.02453 29.5748C7.23375 29.5298 9.44437 29.5411 11.6536 29.5537C12.2161 29.5537 12.562 29.932 12.5536 30.4382C12.5452 30.9445 12.2006 31.2918 11.6269 31.3017C10.523 31.3157 9.42187 31.3017 8.31234 31.3017Z" fill="white"/>
</g>
</g>
</g>
<defs>
<clipPath id="clip0_64_32">
<rect width="54" height="54" fill="white"/>
</clipPath>
</defs>
</svg>
