<svg width="24" height="24" viewBox="0 0 24 24" fill="none" xmlns="http://www.w3.org/2000/svg">
<path d="M11.3846 5L18.0481 5.95192L19 12.6154L12.8125 18.8029C12.5496 19.0657 12.1235 19.0657 11.8606 18.8029L5.19715 12.1394C4.93428 11.8766 4.93428 11.4504 5.19715 11.1875L11.3846 5ZM11.8606 6.42788L6.62504 11.6635L12.3365 17.375L17.5721 12.1394L16.8582 7.14182L11.8606 6.42788ZM13.2885 10.7115C12.7628 10.1858 12.7628 9.33342 13.2885 8.80769C13.8142 8.28195 14.6666 8.28195 15.1923 8.80769C15.718 9.33342 15.718 10.1858 15.1923 10.7115C14.6666 11.2372 13.8142 11.2372 13.2885 10.7115Z" fill="white"/>
</svg>
