<svg width="48" height="48" viewBox="0 0 48 48" fill="none" xmlns="http://www.w3.org/2000/svg">
<g id="secure-pay 1" clip-path="url(#clip0_65_102)">
<g id="Layer 2">
<g id="Layer 1">
<path id="Vector" d="M0 4.30521C0.03 4.21896 0.06625 4.13522 0.09125 4.04771C0.53375 2.49771 1.71625 1.59646 3.33125 1.59521C14.9704 1.59521 26.6096 1.59521 38.2487 1.59521C40.2587 1.59521 41.61 2.96146 41.6125 4.99521C41.6175 9.87688 41.6175 14.7581 41.6125 19.639C41.6213 19.7638 41.6213 19.8891 41.6125 20.014C41.5637 20.349 41.7 20.4852 42.0375 20.5227C42.905 20.619 43.7675 20.7727 44.6362 20.8565C45.665 20.959 46.4075 21.6627 46.4038 22.6802C46.3913 25.8915 46.5125 29.114 46.29 32.3115C45.735 40.3027 40.3862 44.9015 34.1512 46.2327C33.535 46.3577 32.8112 46.2152 32.1838 46.0365C27.5875 44.7202 24.1175 42.0427 22.1688 37.5927C21.2825 35.569 20.9038 33.4277 20.8213 31.2302C20.81 30.954 20.8213 30.6765 20.8213 30.3427H20.2188C14.7975 30.3427 9.37625 30.3065 3.955 30.3627C2.0975 30.3827 0.645 29.8477 0.00375 27.7052L0 4.30521ZM22.4062 27.1665H22.3275C22.4125 29.0965 22.38 31.0415 22.6038 32.9515C23.2938 38.8515 27.1762 43.1677 32.96 44.6027C33.2425 44.6727 33.5612 44.7502 33.835 44.6877C37.8825 43.754 41.0775 41.6315 43.085 37.9277C44.3825 35.5402 44.8025 32.9402 44.81 30.2577C44.8175 28.0277 44.8175 25.7977 44.81 23.5677C44.81 22.1927 44.96 22.5165 43.6975 22.3865C39.9 21.994 36.5725 20.6365 33.9287 17.8015C33.6912 17.5515 33.5337 17.5515 33.2837 17.8015C32.7891 18.3206 32.2631 18.809 31.7087 19.264C29.1325 21.294 26.1462 22.2215 22.9125 22.4365C22.4937 22.4652 22.3938 22.6165 22.3988 23.0052C22.4175 24.3902 22.4062 25.779 22.4062 27.1665ZM20.8088 28.7502V28.179C20.8088 26.3852 20.8088 24.5927 20.8088 22.804C20.8088 21.679 21.4938 20.959 22.6025 20.869C23.1625 20.824 23.7275 20.7752 24.2787 20.6915C27.25 20.244 29.9038 19.1102 31.9575 16.8677C32.8162 15.929 34.1688 15.6177 35.255 16.8765C36.1738 17.9352 37.325 18.7227 38.5788 19.349C39.0262 19.5727 39.4975 19.7477 39.9775 19.9527V13.6065H1.6025V26.7777C1.6025 28.1765 2.165 28.7452 3.55 28.7452H20.8088V28.7502ZM39.9875 8.01771H1.63375V11.944H39.9875V8.01771ZM1.6 6.35396H40.0137V5.17021C40.0137 3.76521 39.4325 3.18896 38.0137 3.18896H3.57375C3.4175 3.18896 3.26125 3.18271 3.105 3.18896C2.71088 3.2121 2.33935 3.38058 2.06227 3.66181C1.7852 3.94305 1.62227 4.31705 1.605 4.71146C1.58125 5.25021 1.6 5.77396 1.6 6.35396Z" fill="white"/>
<path id="Vector_2" d="M31.0938 36.3039C31.225 36.1264 31.3363 35.9789 31.4425 35.8289C33.7308 32.6347 36.0175 29.4418 38.3025 26.2501C38.3575 26.1739 38.41 26.0976 38.4663 26.0226C38.82 25.5514 39.275 25.4489 39.6725 25.7476C40.0475 26.0264 40.09 26.4976 39.7638 26.9501C38.0971 29.2835 36.4304 31.6168 34.7638 33.9501C33.8471 35.2301 32.9304 36.5101 32.0138 37.7901C31.5138 38.4851 31.0575 38.5201 30.4475 37.9151C29.4638 36.9351 28.4788 35.9564 27.5038 34.9689C27.1525 34.6139 27.1213 34.2126 27.3913 33.8764C27.4982 33.7287 27.6547 33.6246 27.8322 33.583C28.0097 33.5414 28.1962 33.5653 28.3575 33.6501C28.5209 33.7408 28.6666 33.8602 28.7875 34.0026C29.5475 34.7501 30.305 35.5151 31.0938 36.3039Z" fill="white"/>
<path id="Vector_3" d="M8.81874 20.7698C10.3479 20.7698 11.8767 20.7698 13.405 20.7698C14.03 20.7698 14.405 21.0736 14.3975 21.5686C14.39 22.0636 14.0225 22.3623 13.3975 22.3636C10.3233 22.3636 7.24957 22.3636 4.17624 22.3636C3.41749 22.3636 2.94374 21.7298 3.32999 21.1923C3.43177 21.074 3.55622 20.9774 3.69599 20.908C3.83575 20.8387 3.988 20.7981 4.14374 20.7886C5.69749 20.7498 7.25874 20.7698 8.81874 20.7698Z" fill="white"/>
<path id="Vector_4" d="M7.20623 25.5537C6.19123 25.5537 5.17623 25.5537 4.16248 25.5537C3.57498 25.5537 3.20373 25.2424 3.19998 24.7649C3.19623 24.2874 3.57498 23.9637 4.14873 23.9624C6.17873 23.9624 8.20831 23.9624 10.2375 23.9624C10.8362 23.9624 11.1862 24.2612 11.1887 24.7524C11.1912 25.2437 10.8437 25.5512 10.25 25.5537C9.23498 25.5574 8.21998 25.5537 7.20623 25.5537Z" fill="white"/>
</g>
</g>
</g>
<defs>
<clipPath id="clip0_65_102">
<rect width="48" height="48" fill="white"/>
</clipPath>
</defs>
</svg>
