<svg width="48" height="48" viewBox="0 0 48 48" fill="none" xmlns="http://www.w3.org/2000/svg">
<g id="value 1" clip-path="url(#clip0_65_92)">
<g id="Layer 2">
<g id="Layer 1">
<path id="Vector" d="M0 44.538C0.0268525 44.2303 0.069369 43.9226 0.077201 43.6138C0.186103 39.6083 0.292021 35.6028 0.394956 31.5973C0.40055 31.4105 0.407263 31.2236 0.417333 31.0379C0.464325 30.0779 0.72278 29.8296 1.68276 29.8542C3.88019 29.9101 6.07762 29.9713 8.27505 30.0377C8.95308 30.0567 9.26971 30.3856 9.27307 31.0592C9.27307 31.4899 9.27307 31.9196 9.27307 32.3716C9.95669 32.1143 10.5956 31.8278 11.259 31.6309C14.3337 30.7213 17.3009 31.0234 20.1316 32.526C21.3085 33.1739 22.6259 33.5242 23.9692 33.5464C25.7001 33.5665 27.4298 33.693 29.1585 33.6728C31.62 33.6448 33.5634 34.503 34.8646 36.6881C35.0437 36.6076 35.2115 36.536 35.3771 36.4588C37.5734 35.4216 39.7619 34.3676 41.9671 33.3506C42.949 32.8871 44.0659 32.7963 45.1097 33.0952C46.1535 33.394 47.0531 34.0622 47.6408 34.9752C48.0705 35.6465 47.9899 36.0795 47.3276 36.508C42.1361 39.8702 36.9569 43.2525 31.7397 46.5777C30.3646 47.4526 28.7557 47.7044 27.1378 47.823C25.2772 47.9595 23.5295 47.4504 21.774 46.9492C18.9769 46.1492 16.1675 45.3828 13.3726 44.5727C12.3197 44.2673 11.3497 44.3489 10.4109 44.9162C10.024 45.1498 9.62435 45.3616 9.21377 45.5506C8.94524 45.6737 8.8714 45.8471 8.86693 46.129C8.84902 47.1036 8.56595 47.3665 7.58024 47.3419C5.39848 47.2859 3.21671 47.2132 1.03494 47.1662C0.815947 47.1714 0.600404 47.111 0.415991 46.9928C0.231578 46.8745 0.0867131 46.7039 0 46.5027L0 44.538ZM45.684 35.4417C44.865 34.6585 43.7383 34.4851 42.6631 34.9875C40.9009 35.811 39.1443 36.649 37.3854 37.4803L35.4565 38.3955C35.4834 38.6193 35.5102 38.8072 35.527 38.993C35.6299 40.0615 35.2909 40.4385 34.2325 40.4106C31.7076 40.3457 29.1831 40.2767 26.659 40.2036C25.8019 40.1801 24.9438 40.1678 24.0856 40.1275C23.3908 40.0962 22.9667 39.4976 23.2174 38.9035C23.4053 38.4492 23.7835 38.3362 24.2467 38.3496C27.2229 38.4354 30.1994 38.5152 33.1763 38.5891C33.3229 38.5891 33.4683 38.5891 33.6608 38.5891C33.5992 38.3742 33.5657 38.2254 33.5142 38.0811C32.9637 36.5259 31.5685 35.5346 29.822 35.4809C28.1079 35.4272 26.3938 35.4003 24.6752 35.3477C23.9592 35.3265 23.2409 35.2929 22.5293 35.2202C21.1508 35.0781 19.9704 34.3889 18.7352 33.8339C15.5879 32.4208 12.5043 32.6099 9.5125 34.3352C9.40221 34.3858 9.30959 34.4682 9.24658 34.5719C9.18356 34.6756 9.15304 34.7958 9.15895 34.917C9.09965 37.6604 9.02133 40.3994 8.94972 43.1462C8.94972 43.2916 8.94972 43.4371 8.94972 43.6519C9.19139 43.531 9.36146 43.4594 9.5181 43.3655C10.9122 42.5353 12.3712 42.41 13.9241 42.8676C16.1619 43.5288 18.4119 44.1554 20.663 44.7696C22.2384 45.1993 23.8048 45.7162 25.4114 45.9556C27.5059 46.2678 29.5378 45.8963 31.3637 44.7137C35.3678 42.1217 39.3718 39.5319 43.3758 36.9444C44.1433 36.4476 44.9097 35.9463 45.684 35.4417ZM2.18512 31.6533C2.05981 36.263 1.93562 40.8044 1.81031 45.3872L7.09578 45.5372C7.22333 40.9331 7.34976 36.3905 7.47619 31.8054L2.18512 31.6533Z" fill="white"/>
<path id="Vector_2" d="M34.2694 30.2314C33.3162 30.1464 32.5441 30.4171 31.79 30.8434C29.9339 31.894 28.0452 31.9074 26.1868 30.8546C25.4306 30.4173 24.5696 30.1941 23.6962 30.209C21.5245 30.228 19.8507 29.3139 18.761 27.4119C18.3745 26.7318 17.7983 26.1789 17.1028 25.8209C15.137 24.7714 14.1323 23.1356 14.1938 20.8856C14.223 20.1779 14.0331 19.4785 13.65 18.8828C12.4059 16.9427 12.3936 14.9948 13.6333 13.048C14.027 12.4252 14.2221 11.6975 14.1927 10.9613C14.1457 8.77063 15.118 7.15724 17.0301 6.13013C17.7777 5.73639 18.3981 5.13849 18.8192 4.40597C19.8765 2.60014 21.4921 1.69723 23.5709 1.69946C24.5208 1.70972 25.4565 1.46846 26.283 1.00018C28.0833 -7.71284e-05 29.926 0.0167056 31.7184 1.02479C32.5177 1.47897 33.4241 1.71078 34.3433 1.69611C36.4601 1.69611 38.0948 2.60574 39.1622 4.45185C39.5662 5.1569 40.1648 5.73062 40.8863 6.1044C42.8164 7.14157 43.7954 8.76839 43.764 10.9703C43.7458 11.7363 43.9562 12.4904 44.3682 13.1364C45.5329 15.0105 45.5273 16.9002 44.3615 18.7721C43.9515 19.4195 43.7435 20.1743 43.764 20.9404C43.7954 23.1211 42.8253 24.7445 40.9143 25.775C40.2094 26.1565 39.622 26.6331 39.2282 27.3414C38.1272 29.3139 36.4098 30.209 34.2694 30.2314ZM24.1292 28.4256C25.0243 28.3953 26.0313 28.7019 26.9857 29.2647C28.2903 30.0389 29.6206 30.0535 30.9296 29.2815C31.9232 28.6846 33.0685 28.3884 34.2269 28.4289C35.762 28.4737 36.9323 27.8225 37.6819 26.462C38.203 25.512 39.0033 24.7449 39.9745 24.2645C41.3618 23.5552 42.0399 22.424 41.9884 20.861C41.9423 19.8253 42.225 18.8015 42.7962 17.9363C43.6656 16.6048 43.6633 15.2891 42.7906 13.9588C42.2229 13.108 41.9411 12.0984 41.9862 11.0766C42.0488 9.47215 41.3473 8.3298 39.9252 7.60814C38.9697 7.13086 38.1841 6.37108 37.6752 5.43196C36.9245 4.0692 35.7519 3.42809 34.2157 3.47397C33.0574 3.51369 31.9125 3.21552 30.9207 2.61581C29.6273 1.85498 28.3082 1.85834 27.0181 2.6214C26.0247 3.21988 24.8787 3.51649 23.7197 3.47509C22.1824 3.43257 21.0177 4.08374 20.2658 5.44539C19.7572 6.38439 18.9705 7.14299 18.0136 7.61709C16.5982 8.3242 15.9224 9.45649 15.9761 11.0453C16.0218 12.0663 15.7421 13.0756 15.1773 13.9274C14.2766 15.2868 14.2822 16.6272 15.1773 17.9855C15.7337 18.8065 16.0103 19.7851 15.9661 20.7759C15.8911 22.4542 16.6217 23.6022 18.0997 24.3384C18.99 24.776 19.722 25.4799 20.1942 26.3523C21.0099 27.8281 22.244 28.5151 24.1292 28.4256Z" fill="white"/>
<path id="Vector_3" d="M35.1578 7.57668C35.0976 7.74982 35.0227 7.91751 34.934 8.07792C31.4663 13.6394 27.9956 19.1993 24.522 24.7578C24.1863 25.296 23.6705 25.447 23.2196 25.1651C22.7687 24.8831 22.677 24.3595 23.016 23.8157C26.4829 18.2543 29.9514 12.6936 33.4213 7.13361C33.7133 6.66593 34.077 6.50817 34.5133 6.63684C34.8859 6.74313 35.1511 7.09221 35.1578 7.57668Z" fill="white"/>
<path id="Vector_4" d="M37.7121 20.7603C37.6867 21.3565 37.5428 21.9416 37.2889 22.4816C37.0349 23.0216 36.676 23.5056 36.233 23.9054C34.8087 25.2234 32.7455 25.2156 31.3223 23.8987C29.4975 22.2103 29.3409 19.11 30.9867 17.2437C32.665 15.3417 35.3815 15.4995 36.8461 17.5794C37.4212 18.4018 37.72 19.3852 37.7121 20.7603ZM35.9376 20.4336C35.9276 19.6057 35.6993 18.8672 35.1018 18.2697C34.3186 17.4977 33.258 17.5 32.4725 18.2586C31.3537 19.3427 31.3458 21.4462 32.4625 22.5326C33.2725 23.3158 34.3824 23.3001 35.1578 22.4755C35.6971 21.9027 35.9152 21.2045 35.9376 20.4336Z" fill="white"/>
<path id="Vector_5" d="M28.0956 11.257C28.0956 12.6847 27.742 13.7431 26.9711 14.6449C25.464 16.4094 23.0003 16.4463 21.4373 14.7356C19.8429 12.9924 19.8283 10.0733 21.4048 8.31109C23.073 6.44484 25.7795 6.6205 27.2307 8.69262C27.8203 9.53399 28.1034 10.475 28.0956 11.257ZM26.3054 11.5032C26.3326 10.763 26.0765 10.0404 25.5893 9.48253C24.8061 8.58744 23.6224 8.56842 22.7922 9.41763C21.7427 10.4962 21.7438 12.5169 22.7922 13.5932C23.6078 14.429 24.7647 14.42 25.5535 13.5574C26.0928 12.9789 26.3155 12.2808 26.311 11.5032H26.3054Z" fill="white"/>
</g>
</g>
</g>
<defs>
<clipPath id="clip0_65_92">
<rect width="48" height="48" fill="white"/>
</clipPath>
</defs>
</svg>
